<?xml version="1.0" encoding="utf-8" standalone="no"?>
<!DOCTYPE svg PUBLIC "-//W3C//DTD SVG 1.1//EN"
  "http://www.w3.org/Graphics/SVG/1.1/DTD/svg11.dtd">
<!-- Created with matplotlib (https://matplotlib.org/) -->
<svg height="603.643125pt" version="1.1" viewBox="0 0 1119.775 603.643125" width="1119.775pt" xmlns="http://www.w3.org/2000/svg" xmlns:xlink="http://www.w3.org/1999/xlink">
 <defs>
  <style type="text/css">
*{stroke-linecap:butt;stroke-linejoin:round;}
  </style>
 </defs>
 <g id="figure_1">
  <g id="patch_1">
   <path d="M 0 603.643125 
L 1119.775 603.643125 
L 1119.775 0 
L 0 0 
z
" style="fill:#ffffff;"/>
  </g>
  <g id="axes_1">
   <g id="patch_2">
    <path d="M 52.375 576.718125 
L 1112.575 576.718125 
L 1112.575 22.318125 
L 52.375 22.318125 
z
" style="fill:#ffffff;"/>
   </g>
   <g id="patch_3">
    <path clip-path="url(#p82037fbd47)" d="M 55.421552 576.718125 
L 61.514655 576.718125 
L 61.514655 576.718125 
L 55.421552 576.718125 
z
" style="fill:#008000;"/>
   </g>
   <g id="patch_4">
    <path clip-path="url(#p82037fbd47)" d="M 67.607759 576.718125 
L 73.700862 576.718125 
L 73.700862 576.718125 
L 67.607759 576.718125 
z
" style="fill:#008000;"/>
   </g>
   <g id="patch_5">
    <path clip-path="url(#p82037fbd47)" d="M 79.793966 576.718125 
L 85.887069 576.718125 
L 85.887069 576.718125 
L 79.793966 576.718125 
z
" style="fill:#008000;"/>
   </g>
   <g id="patch_6">
    <path clip-path="url(#p82037fbd47)" d="M 91.980172 576.718125 
L 98.073276 576.718125 
L 98.073276 576.718125 
L 91.980172 576.718125 
z
" style="fill:#008000;"/>
   </g>
   <g id="patch_7">
    <path clip-path="url(#p82037fbd47)" d="M 104.166379 576.718125 
L 110.259483 576.718125 
L 110.259483 576.718125 
L 104.166379 576.718125 
z
" style="fill:#008000;"/>
   </g>
   <g id="patch_8">
    <path clip-path="url(#p82037fbd47)" d="M 116.352586 576.718125 
L 122.44569 576.718125 
L 122.44569 576.718125 
L 116.352586 576.718125 
z
" style="fill:#008000;"/>
   </g>
   <g id="patch_9">
    <path clip-path="url(#p82037fbd47)" d="M 128.538793 576.718125 
L 134.631897 576.718125 
L 134.631897 576.718125 
L 128.538793 576.718125 
z
" style="fill:#008000;"/>
   </g>
   <g id="patch_10">
    <path clip-path="url(#p82037fbd47)" d="M 140.725 576.718125 
L 146.818103 576.718125 
L 146.818103 576.718125 
L 140.725 576.718125 
z
" style="fill:#008000;"/>
   </g>
   <g id="patch_11">
    <path clip-path="url(#p82037fbd47)" d="M 152.911207 576.718125 
L 159.00431 576.718125 
L 159.00431 576.718125 
L 152.911207 576.718125 
z
" style="fill:#008000;"/>
   </g>
   <g id="patch_12">
    <path clip-path="url(#p82037fbd47)" d="M 165.097414 576.718125 
L 171.190517 576.718125 
L 171.190517 576.718125 
L 165.097414 576.718125 
z
" style="fill:#008000;"/>
   </g>
   <g id="patch_13">
    <path clip-path="url(#p82037fbd47)" d="M 177.283621 576.718125 
L 183.376724 576.718125 
L 183.376724 576.718125 
L 177.283621 576.718125 
z
" style="fill:#008000;"/>
   </g>
   <g id="patch_14">
    <path clip-path="url(#p82037fbd47)" d="M 189.469828 576.718125 
L 195.562931 576.718125 
L 195.562931 576.718125 
L 189.469828 576.718125 
z
" style="fill:#008000;"/>
   </g>
   <g id="patch_15">
    <path clip-path="url(#p82037fbd47)" d="M 201.656034 576.718125 
L 207.749138 576.718125 
L 207.749138 576.718125 
L 201.656034 576.718125 
z
" style="fill:#008000;"/>
   </g>
   <g id="patch_16">
    <path clip-path="url(#p82037fbd47)" d="M 213.842241 576.718125 
L 219.935345 576.718125 
L 219.935345 576.718125 
L 213.842241 576.718125 
z
" style="fill:#008000;"/>
   </g>
   <g id="patch_17">
    <path clip-path="url(#p82037fbd47)" d="M 226.028448 576.718125 
L 232.121552 576.718125 
L 232.121552 576.718125 
L 226.028448 576.718125 
z
" style="fill:#008000;"/>
   </g>
   <g id="patch_18">
    <path clip-path="url(#p82037fbd47)" d="M 238.214655 576.718125 
L 244.307759 576.718125 
L 244.307759 576.718125 
L 238.214655 576.718125 
z
" style="fill:#008000;"/>
   </g>
   <g id="patch_19">
    <path clip-path="url(#p82037fbd47)" d="M 250.400862 576.718125 
L 256.493966 576.718125 
L 256.493966 576.718125 
L 250.400862 576.718125 
z
" style="fill:#008000;"/>
   </g>
   <g id="patch_20">
    <path clip-path="url(#p82037fbd47)" d="M 262.587069 576.718125 
L 268.680172 576.718125 
L 268.680172 576.718125 
L 262.587069 576.718125 
z
" style="fill:#008000;"/>
   </g>
   <g id="patch_21">
    <path clip-path="url(#p82037fbd47)" d="M 274.773276 576.718125 
L 280.866379 576.718125 
L 280.866379 576.718125 
L 274.773276 576.718125 
z
" style="fill:#008000;"/>
   </g>
   <g id="patch_22">
    <path clip-path="url(#p82037fbd47)" d="M 286.959483 576.718125 
L 293.052586 576.718125 
L 293.052586 576.718125 
L 286.959483 576.718125 
z
" style="fill:#008000;"/>
   </g>
   <g id="patch_23">
    <path clip-path="url(#p82037fbd47)" d="M 299.14569 576.718125 
L 305.238793 576.718125 
L 305.238793 576.718125 
L 299.14569 576.718125 
z
" style="fill:#008000;"/>
   </g>
   <g id="patch_24">
    <path clip-path="url(#p82037fbd47)" d="M 311.331897 576.718125 
L 317.425 576.718125 
L 317.425 576.718125 
L 311.331897 576.718125 
z
" style="fill:#008000;"/>
   </g>
   <g id="patch_25">
    <path clip-path="url(#p82037fbd47)" d="M 323.518103 576.718125 
L 329.611207 576.718125 
L 329.611207 576.718125 
L 323.518103 576.718125 
z
" style="fill:#008000;"/>
   </g>
   <g id="patch_26">
    <path clip-path="url(#p82037fbd47)" d="M 335.70431 576.718125 
L 341.797414 576.718125 
L 341.797414 576.718125 
L 335.70431 576.718125 
z
" style="fill:#008000;"/>
   </g>
   <g id="patch_27">
    <path clip-path="url(#p82037fbd47)" d="M 347.890517 576.718125 
L 353.983621 576.718125 
L 353.983621 576.718125 
L 347.890517 576.718125 
z
" style="fill:#008000;"/>
   </g>
   <g id="patch_28">
    <path clip-path="url(#p82037fbd47)" d="M 360.076724 576.718125 
L 366.169828 576.718125 
L 366.169828 576.718125 
L 360.076724 576.718125 
z
" style="fill:#008000;"/>
   </g>
   <g id="patch_29">
    <path clip-path="url(#p82037fbd47)" d="M 372.262931 576.718125 
L 378.356034 576.718125 
L 378.356034 576.718125 
L 372.262931 576.718125 
z
" style="fill:#008000;"/>
   </g>
   <g id="patch_30">
    <path clip-path="url(#p82037fbd47)" d="M 384.449138 576.718125 
L 390.542241 576.718125 
L 390.542241 576.718125 
L 384.449138 576.718125 
z
" style="fill:#008000;"/>
   </g>
   <g id="patch_31">
    <path clip-path="url(#p82037fbd47)" d="M 396.635345 576.718125 
L 402.728448 576.718125 
L 402.728448 576.718125 
L 396.635345 576.718125 
z
" style="fill:#008000;"/>
   </g>
   <g id="patch_32">
    <path clip-path="url(#p82037fbd47)" d="M 408.821552 576.718125 
L 414.914655 576.718125 
L 414.914655 576.718125 
L 408.821552 576.718125 
z
" style="fill:#008000;"/>
   </g>
   <g id="patch_33">
    <path clip-path="url(#p82037fbd47)" d="M 421.007759 576.718125 
L 427.100862 576.718125 
L 427.100862 576.718125 
L 421.007759 576.718125 
z
" style="fill:#008000;"/>
   </g>
   <g id="patch_34">
    <path clip-path="url(#p82037fbd47)" d="M 433.193966 576.718125 
L 439.287069 576.718125 
L 439.287069 576.718125 
L 433.193966 576.718125 
z
" style="fill:#008000;"/>
   </g>
   <g id="patch_35">
    <path clip-path="url(#p82037fbd47)" d="M 445.380172 576.718125 
L 451.473276 576.718125 
L 451.473276 576.718125 
L 445.380172 576.718125 
z
" style="fill:#008000;"/>
   </g>
   <g id="patch_36">
    <path clip-path="url(#p82037fbd47)" d="M 457.566379 576.718125 
L 463.659483 576.718125 
L 463.659483 576.718125 
L 457.566379 576.718125 
z
" style="fill:#008000;"/>
   </g>
   <g id="patch_37">
    <path clip-path="url(#p82037fbd47)" d="M 469.752586 576.718125 
L 475.84569 576.718125 
L 475.84569 576.718125 
L 469.752586 576.718125 
z
" style="fill:#008000;"/>
   </g>
   <g id="patch_38">
    <path clip-path="url(#p82037fbd47)" d="M 481.938793 576.718125 
L 488.031897 576.718125 
L 488.031897 576.718125 
L 481.938793 576.718125 
z
" style="fill:#008000;"/>
   </g>
   <g id="patch_39">
    <path clip-path="url(#p82037fbd47)" d="M 494.125 576.718125 
L 500.218103 576.718125 
L 500.218103 576.718125 
L 494.125 576.718125 
z
" style="fill:#008000;"/>
   </g>
   <g id="patch_40">
    <path clip-path="url(#p82037fbd47)" d="M 506.311207 576.718125 
L 512.40431 576.718125 
L 512.40431 576.718125 
L 506.311207 576.718125 
z
" style="fill:#008000;"/>
   </g>
   <g id="patch_41">
    <path clip-path="url(#p82037fbd47)" d="M 518.497414 576.718125 
L 524.590517 576.718125 
L 524.590517 576.718125 
L 518.497414 576.718125 
z
" style="fill:#008000;"/>
   </g>
   <g id="patch_42">
    <path clip-path="url(#p82037fbd47)" d="M 530.683621 576.718125 
L 536.776724 576.718125 
L 536.776724 576.718125 
L 530.683621 576.718125 
z
" style="fill:#008000;"/>
   </g>
   <g id="patch_43">
    <path clip-path="url(#p82037fbd47)" d="M 542.869828 576.718125 
L 548.962931 576.718125 
L 548.962931 576.718125 
L 542.869828 576.718125 
z
" style="fill:#008000;"/>
   </g>
   <g id="patch_44">
    <path clip-path="url(#p82037fbd47)" d="M 555.056034 576.718125 
L 561.149138 576.718125 
L 561.149138 576.718125 
L 555.056034 576.718125 
z
" style="fill:#008000;"/>
   </g>
   <g id="patch_45">
    <path clip-path="url(#p82037fbd47)" d="M 567.242241 576.718125 
L 573.335345 576.718125 
L 573.335345 576.718125 
L 567.242241 576.718125 
z
" style="fill:#008000;"/>
   </g>
   <g id="patch_46">
    <path clip-path="url(#p82037fbd47)" d="M 579.428448 576.718125 
L 585.521552 576.718125 
L 585.521552 576.718125 
L 579.428448 576.718125 
z
" style="fill:#008000;"/>
   </g>
   <g id="patch_47">
    <path clip-path="url(#p82037fbd47)" d="M 591.614655 576.718125 
L 597.707759 576.718125 
L 597.707759 576.718125 
L 591.614655 576.718125 
z
" style="fill:#008000;"/>
   </g>
   <g id="patch_48">
    <path clip-path="url(#p82037fbd47)" d="M 603.800862 576.718125 
L 609.893966 576.718125 
L 609.893966 576.715631 
L 603.800862 576.715631 
z
" style="fill:#008000;"/>
   </g>
   <g id="patch_49">
    <path clip-path="url(#p82037fbd47)" d="M 615.987069 576.718125 
L 622.080172 576.718125 
L 622.080172 576.715631 
L 615.987069 576.715631 
z
" style="fill:#008000;"/>
   </g>
   <g id="patch_50">
    <path clip-path="url(#p82037fbd47)" d="M 628.173276 576.718125 
L 634.266379 576.718125 
L 634.266379 576.715631 
L 628.173276 576.715631 
z
" style="fill:#008000;"/>
   </g>
   <g id="patch_51">
    <path clip-path="url(#p82037fbd47)" d="M 640.359483 576.718125 
L 646.452586 576.718125 
L 646.452586 576.713137 
L 640.359483 576.713137 
z
" style="fill:#008000;"/>
   </g>
   <g id="patch_52">
    <path clip-path="url(#p82037fbd47)" d="M 652.54569 576.718125 
L 658.638793 576.718125 
L 658.638793 576.710643 
L 652.54569 576.710643 
z
" style="fill:#008000;"/>
   </g>
   <g id="patch_53">
    <path clip-path="url(#p82037fbd47)" d="M 664.731897 576.718125 
L 670.825 576.718125 
L 670.825 576.708148 
L 664.731897 576.708148 
z
" style="fill:#008000;"/>
   </g>
   <g id="patch_54">
    <path clip-path="url(#p82037fbd47)" d="M 676.918103 576.718125 
L 683.011207 576.718125 
L 683.011207 576.70316 
L 676.918103 576.70316 
z
" style="fill:#008000;"/>
   </g>
   <g id="patch_55">
    <path clip-path="url(#p82037fbd47)" d="M 689.10431 576.718125 
L 695.197414 576.718125 
L 695.197414 576.698172 
L 689.10431 576.698172 
z
" style="fill:#008000;"/>
   </g>
   <g id="patch_56">
    <path clip-path="url(#p82037fbd47)" d="M 701.290517 576.718125 
L 707.383621 576.718125 
L 707.383621 576.690689 
L 701.290517 576.690689 
z
" style="fill:#008000;"/>
   </g>
   <g id="patch_57">
    <path clip-path="url(#p82037fbd47)" d="M 713.476724 576.718125 
L 719.569828 576.718125 
L 719.569828 576.680713 
L 713.476724 576.680713 
z
" style="fill:#008000;"/>
   </g>
   <g id="patch_58">
    <path clip-path="url(#p82037fbd47)" d="M 725.662931 576.718125 
L 731.756034 576.718125 
L 731.756034 576.665748 
L 725.662931 576.665748 
z
" style="fill:#008000;"/>
   </g>
   <g id="patch_59">
    <path clip-path="url(#p82037fbd47)" d="M 737.849138 576.718125 
L 743.942241 576.718125 
L 743.942241 576.648289 
L 737.849138 576.648289 
z
" style="fill:#008000;"/>
   </g>
   <g id="patch_60">
    <path clip-path="url(#p82037fbd47)" d="M 750.035345 576.718125 
L 756.128448 576.718125 
L 756.128448 576.623348 
L 750.035345 576.623348 
z
" style="fill:#008000;"/>
   </g>
   <g id="patch_61">
    <path clip-path="url(#p82037fbd47)" d="M 762.221552 576.718125 
L 768.314655 576.718125 
L 768.314655 576.590924 
L 762.221552 576.590924 
z
" style="fill:#008000;"/>
   </g>
   <g id="patch_62">
    <path clip-path="url(#p82037fbd47)" d="M 774.407759 576.718125 
L 780.500862 576.718125 
L 780.500862 576.546029 
L 774.407759 576.546029 
z
" style="fill:#008000;"/>
   </g>
   <g id="patch_63">
    <path clip-path="url(#p82037fbd47)" d="M 786.593966 576.718125 
L 792.687069 576.718125 
L 792.687069 576.483676 
L 786.593966 576.483676 
z
" style="fill:#008000;"/>
   </g>
   <g id="patch_64">
    <path clip-path="url(#p82037fbd47)" d="M 798.780172 576.718125 
L 804.873276 576.718125 
L 804.873276 576.403863 
L 798.780172 576.403863 
z
" style="fill:#008000;"/>
   </g>
   <g id="patch_65">
    <path clip-path="url(#p82037fbd47)" d="M 810.966379 576.718125 
L 817.059483 576.718125 
L 817.059483 576.294121 
L 810.966379 576.294121 
z
" style="fill:#008000;"/>
   </g>
   <g id="patch_66">
    <path clip-path="url(#p82037fbd47)" d="M 823.152586 576.718125 
L 829.24569 576.718125 
L 829.24569 576.146966 
L 823.152586 576.146966 
z
" style="fill:#008000;"/>
   </g>
   <g id="patch_67">
    <path clip-path="url(#p82037fbd47)" d="M 835.338793 576.718125 
L 841.431897 576.718125 
L 841.431897 575.949929 
L 835.338793 575.949929 
z
" style="fill:#008000;"/>
   </g>
   <g id="patch_68">
    <path clip-path="url(#p82037fbd47)" d="M 847.525 576.718125 
L 853.618103 576.718125 
L 853.618103 575.683056 
L 847.525 575.683056 
z
" style="fill:#008000;"/>
   </g>
   <g id="patch_69">
    <path clip-path="url(#p82037fbd47)" d="M 859.711207 576.718125 
L 865.80431 576.718125 
L 865.80431 575.326393 
L 859.711207 575.326393 
z
" style="fill:#008000;"/>
   </g>
   <g id="patch_70">
    <path clip-path="url(#p82037fbd47)" d="M 871.897414 576.718125 
L 877.990517 576.718125 
L 877.990517 574.845024 
L 871.897414 574.845024 
z
" style="fill:#008000;"/>
   </g>
   <g id="patch_71">
    <path clip-path="url(#p82037fbd47)" d="M 884.083621 576.718125 
L 890.176724 576.718125 
L 890.176724 574.196547 
L 884.083621 574.196547 
z
" style="fill:#008000;"/>
   </g>
   <g id="patch_72">
    <path clip-path="url(#p82037fbd47)" d="M 896.269828 576.718125 
L 902.362931 576.718125 
L 902.362931 573.323597 
L 896.269828 573.323597 
z
" style="fill:#008000;"/>
   </g>
   <g id="patch_73">
    <path clip-path="url(#p82037fbd47)" d="M 908.456034 576.718125 
L 914.549138 576.718125 
L 914.549138 572.15135 
L 908.456034 572.15135 
z
" style="fill:#008000;"/>
   </g>
   <g id="patch_74">
    <path clip-path="url(#p82037fbd47)" d="M 920.642241 576.718125 
L 926.735345 576.718125 
L 926.735345 570.570064 
L 920.642241 570.570064 
z
" style="fill:#008000;"/>
   </g>
   <g id="patch_75">
    <path clip-path="url(#p82037fbd47)" d="M 932.828448 576.718125 
L 938.921552 576.718125 
L 938.921552 568.445054 
L 932.828448 568.445054 
z
" style="fill:#008000;"/>
   </g>
   <g id="patch_76">
    <path clip-path="url(#p82037fbd47)" d="M 945.014655 576.718125 
L 951.107759 576.718125 
L 951.107759 565.586767 
L 945.014655 565.586767 
z
" style="fill:#008000;"/>
   </g>
   <g id="patch_77">
    <path clip-path="url(#p82037fbd47)" d="M 957.200862 576.718125 
L 963.293966 576.718125 
L 963.293966 561.738305 
L 957.200862 561.738305 
z
" style="fill:#008000;"/>
   </g>
   <g id="patch_78">
    <path clip-path="url(#p82037fbd47)" d="M 969.387069 576.718125 
L 975.480172 576.718125 
L 975.480172 556.557971 
L 969.387069 556.557971 
z
" style="fill:#008000;"/>
   </g>
   <g id="patch_79">
    <path clip-path="url(#p82037fbd47)" d="M 981.573276 576.718125 
L 987.666379 576.718125 
L 987.666379 549.591831 
L 981.573276 549.591831 
z
" style="fill:#008000;"/>
   </g>
   <g id="patch_80">
    <path clip-path="url(#p82037fbd47)" d="M 993.759483 576.718125 
L 999.852586 576.718125 
L 999.852586 540.213855 
L 993.759483 540.213855 
z
" style="fill:#008000;"/>
   </g>
   <g id="patch_81">
    <path clip-path="url(#p82037fbd47)" d="M 1005.94569 576.718125 
L 1012.038793 576.718125 
L 1012.038793 527.595988 
L 1005.94569 527.595988 
z
" style="fill:#008000;"/>
   </g>
   <g id="patch_82">
    <path clip-path="url(#p82037fbd47)" d="M 1018.131897 576.718125 
L 1024.225 576.718125 
L 1024.225 510.615865 
L 1018.131897 510.615865 
z
" style="fill:#008000;"/>
   </g>
   <g id="patch_83">
    <path clip-path="url(#p82037fbd47)" d="M 1030.318103 576.718125 
L 1036.411207 576.718125 
L 1036.411207 487.769519 
L 1030.318103 487.769519 
z
" style="fill:#008000;"/>
   </g>
   <g id="patch_84">
    <path clip-path="url(#p82037fbd47)" d="M 1042.50431 576.718125 
L 1048.597414 576.718125 
L 1048.597414 457.024224 
L 1042.50431 457.024224 
z
" style="fill:#008000;"/>
   </g>
   <g id="patch_85">
    <path clip-path="url(#p82037fbd47)" d="M 1054.690517 576.718125 
L 1060.783621 576.718125 
L 1060.783621 415.656376 
L 1054.690517 415.656376 
z
" style="fill:#008000;"/>
   </g>
   <g id="patch_86">
    <path clip-path="url(#p82037fbd47)" d="M 1066.876724 576.718125 
L 1072.969828 576.718125 
L 1072.969828 359.989609 
L 1066.876724 359.989609 
z
" style="fill:#008000;"/>
   </g>
   <g id="patch_87">
    <path clip-path="url(#p82037fbd47)" d="M 1079.062931 576.718125 
L 1085.156034 576.718125 
L 1085.156034 285.090508 
L 1079.062931 285.090508 
z
" style="fill:#008000;"/>
   </g>
   <g id="patch_88">
    <path clip-path="url(#p82037fbd47)" d="M 1091.249138 576.718125 
L 1097.342241 576.718125 
L 1097.342241 184.312184 
L 1091.249138 184.312184 
z
" style="fill:#008000;"/>
   </g>
   <g id="patch_89">
    <path clip-path="url(#p82037fbd47)" d="M 1103.435345 576.718125 
L 1109.528448 576.718125 
L 1109.528448 48.718125 
L 1103.435345 48.718125 
z
" style="fill:#008000;"/>
   </g>
   <g id="matplotlib.axis_1">
    <g id="xtick_1">
     <g id="line2d_1">
      <defs>
       <path d="M 0 0 
L 0 3.5 
" id="m00fb31e224" style="stroke:#000000;stroke-width:0.8;"/>
      </defs>
      <g>
       <use style="stroke:#000000;stroke-width:0.8;" x="58.468103" xlink:href="#m00fb31e224" y="576.718125"/>
      </g>
     </g>
     <g id="text_1">
      <!-- 0 -->
      <defs>
       <path d="M 31.78125 66.40625 
Q 24.171875 66.40625 20.328125 58.90625 
Q 16.5 51.421875 16.5 36.375 
Q 16.5 21.390625 20.328125 13.890625 
Q 24.171875 6.390625 31.78125 6.390625 
Q 39.453125 6.390625 43.28125 13.890625 
Q 47.125 21.390625 47.125 36.375 
Q 47.125 51.421875 43.28125 58.90625 
Q 39.453125 66.40625 31.78125 66.40625 
z
M 31.78125 74.21875 
Q 44.046875 74.21875 50.515625 64.515625 
Q 56.984375 54.828125 56.984375 36.375 
Q 56.984375 17.96875 50.515625 8.265625 
Q 44.046875 -1.421875 31.78125 -1.421875 
Q 19.53125 -1.421875 13.0625 8.265625 
Q 6.59375 17.96875 6.59375 36.375 
Q 6.59375 54.828125 13.0625 64.515625 
Q 19.53125 74.21875 31.78125 74.21875 
z
" id="DejaVuSans-48"/>
      </defs>
      <g transform="translate(61.227478 590.080625)rotate(-90)scale(0.1 -0.1)">
       <use xlink:href="#DejaVuSans-48"/>
      </g>
     </g>
    </g>
    <g id="xtick_2">
     <g id="line2d_2">
      <g>
       <use style="stroke:#000000;stroke-width:0.8;" x="70.65431" xlink:href="#m00fb31e224" y="576.718125"/>
      </g>
     </g>
     <g id="text_2">
      <!-- 1 -->
      <defs>
       <path d="M 12.40625 8.296875 
L 28.515625 8.296875 
L 28.515625 63.921875 
L 10.984375 60.40625 
L 10.984375 69.390625 
L 28.421875 72.90625 
L 38.28125 72.90625 
L 38.28125 8.296875 
L 54.390625 8.296875 
L 54.390625 0 
L 12.40625 0 
z
" id="DejaVuSans-49"/>
      </defs>
      <g transform="translate(73.413685 590.080625)rotate(-90)scale(0.1 -0.1)">
       <use xlink:href="#DejaVuSans-49"/>
      </g>
     </g>
    </g>
    <g id="xtick_3">
     <g id="line2d_3">
      <g>
       <use style="stroke:#000000;stroke-width:0.8;" x="82.840517" xlink:href="#m00fb31e224" y="576.718125"/>
      </g>
     </g>
     <g id="text_3">
      <!-- 2 -->
      <defs>
       <path d="M 19.1875 8.296875 
L 53.609375 8.296875 
L 53.609375 0 
L 7.328125 0 
L 7.328125 8.296875 
Q 12.9375 14.109375 22.625 23.890625 
Q 32.328125 33.6875 34.8125 36.53125 
Q 39.546875 41.84375 41.421875 45.53125 
Q 43.3125 49.21875 43.3125 52.78125 
Q 43.3125 58.59375 39.234375 62.25 
Q 35.15625 65.921875 28.609375 65.921875 
Q 23.96875 65.921875 18.8125 64.3125 
Q 13.671875 62.703125 7.8125 59.421875 
L 7.8125 69.390625 
Q 13.765625 71.78125 18.9375 73 
Q 24.125 74.21875 28.421875 74.21875 
Q 39.75 74.21875 46.484375 68.546875 
Q 53.21875 62.890625 53.21875 53.421875 
Q 53.21875 48.921875 51.53125 44.890625 
Q 49.859375 40.875 45.40625 35.40625 
Q 44.1875 33.984375 37.640625 27.21875 
Q 31.109375 20.453125 19.1875 8.296875 
z
" id="DejaVuSans-50"/>
      </defs>
      <g transform="translate(85.599892 590.080625)rotate(-90)scale(0.1 -0.1)">
       <use xlink:href="#DejaVuSans-50"/>
      </g>
     </g>
    </g>
    <g id="xtick_4">
     <g id="line2d_4">
      <g>
       <use style="stroke:#000000;stroke-width:0.8;" x="95.026724" xlink:href="#m00fb31e224" y="576.718125"/>
      </g>
     </g>
     <g id="text_4">
      <!-- 3 -->
      <defs>
       <path d="M 40.578125 39.3125 
Q 47.65625 37.796875 51.625 33 
Q 55.609375 28.21875 55.609375 21.1875 
Q 55.609375 10.40625 48.1875 4.484375 
Q 40.765625 -1.421875 27.09375 -1.421875 
Q 22.515625 -1.421875 17.65625 -0.515625 
Q 12.796875 0.390625 7.625 2.203125 
L 7.625 11.71875 
Q 11.71875 9.328125 16.59375 8.109375 
Q 21.484375 6.890625 26.8125 6.890625 
Q 36.078125 6.890625 40.9375 10.546875 
Q 45.796875 14.203125 45.796875 21.1875 
Q 45.796875 27.640625 41.28125 31.265625 
Q 36.765625 34.90625 28.71875 34.90625 
L 20.21875 34.90625 
L 20.21875 43.015625 
L 29.109375 43.015625 
Q 36.375 43.015625 40.234375 45.921875 
Q 44.09375 48.828125 44.09375 54.296875 
Q 44.09375 59.90625 40.109375 62.90625 
Q 36.140625 65.921875 28.71875 65.921875 
Q 24.65625 65.921875 20.015625 65.03125 
Q 15.375 64.15625 9.8125 62.3125 
L 9.8125 71.09375 
Q 15.4375 72.65625 20.34375 73.4375 
Q 25.25 74.21875 29.59375 74.21875 
Q 40.828125 74.21875 47.359375 69.109375 
Q 53.90625 64.015625 53.90625 55.328125 
Q 53.90625 49.265625 50.4375 45.09375 
Q 46.96875 40.921875 40.578125 39.3125 
z
" id="DejaVuSans-51"/>
      </defs>
      <g transform="translate(97.786099 590.080625)rotate(-90)scale(0.1 -0.1)">
       <use xlink:href="#DejaVuSans-51"/>
      </g>
     </g>
    </g>
    <g id="xtick_5">
     <g id="line2d_5">
      <g>
       <use style="stroke:#000000;stroke-width:0.8;" x="107.212931" xlink:href="#m00fb31e224" y="576.718125"/>
      </g>
     </g>
     <g id="text_5">
      <!-- 4 -->
      <defs>
       <path d="M 37.796875 64.3125 
L 12.890625 25.390625 
L 37.796875 25.390625 
z
M 35.203125 72.90625 
L 47.609375 72.90625 
L 47.609375 25.390625 
L 58.015625 25.390625 
L 58.015625 17.1875 
L 47.609375 17.1875 
L 47.609375 0 
L 37.796875 0 
L 37.796875 17.1875 
L 4.890625 17.1875 
L 4.890625 26.703125 
z
" id="DejaVuSans-52"/>
      </defs>
      <g transform="translate(109.972306 590.080625)rotate(-90)scale(0.1 -0.1)">
       <use xlink:href="#DejaVuSans-52"/>
      </g>
     </g>
    </g>
    <g id="xtick_6">
     <g id="line2d_6">
      <g>
       <use style="stroke:#000000;stroke-width:0.8;" x="119.399138" xlink:href="#m00fb31e224" y="576.718125"/>
      </g>
     </g>
     <g id="text_6">
      <!-- 5 -->
      <defs>
       <path d="M 10.796875 72.90625 
L 49.515625 72.90625 
L 49.515625 64.59375 
L 19.828125 64.59375 
L 19.828125 46.734375 
Q 21.96875 47.46875 24.109375 47.828125 
Q 26.265625 48.1875 28.421875 48.1875 
Q 40.625 48.1875 47.75 41.5 
Q 54.890625 34.8125 54.890625 23.390625 
Q 54.890625 11.625 47.5625 5.09375 
Q 40.234375 -1.421875 26.90625 -1.421875 
Q 22.3125 -1.421875 17.546875 -0.640625 
Q 12.796875 0.140625 7.71875 1.703125 
L 7.71875 11.625 
Q 12.109375 9.234375 16.796875 8.0625 
Q 21.484375 6.890625 26.703125 6.890625 
Q 35.15625 6.890625 40.078125 11.328125 
Q 45.015625 15.765625 45.015625 23.390625 
Q 45.015625 31 40.078125 35.4375 
Q 35.15625 39.890625 26.703125 39.890625 
Q 22.75 39.890625 18.8125 39.015625 
Q 14.890625 38.140625 10.796875 36.28125 
z
" id="DejaVuSans-53"/>
      </defs>
      <g transform="translate(122.158513 590.080625)rotate(-90)scale(0.1 -0.1)">
       <use xlink:href="#DejaVuSans-53"/>
      </g>
     </g>
    </g>
    <g id="xtick_7">
     <g id="line2d_7">
      <g>
       <use style="stroke:#000000;stroke-width:0.8;" x="131.585345" xlink:href="#m00fb31e224" y="576.718125"/>
      </g>
     </g>
     <g id="text_7">
      <!-- 6 -->
      <defs>
       <path d="M 33.015625 40.375 
Q 26.375 40.375 22.484375 35.828125 
Q 18.609375 31.296875 18.609375 23.390625 
Q 18.609375 15.53125 22.484375 10.953125 
Q 26.375 6.390625 33.015625 6.390625 
Q 39.65625 6.390625 43.53125 10.953125 
Q 47.40625 15.53125 47.40625 23.390625 
Q 47.40625 31.296875 43.53125 35.828125 
Q 39.65625 40.375 33.015625 40.375 
z
M 52.59375 71.296875 
L 52.59375 62.3125 
Q 48.875 64.0625 45.09375 64.984375 
Q 41.3125 65.921875 37.59375 65.921875 
Q 27.828125 65.921875 22.671875 59.328125 
Q 17.53125 52.734375 16.796875 39.40625 
Q 19.671875 43.65625 24.015625 45.921875 
Q 28.375 48.1875 33.59375 48.1875 
Q 44.578125 48.1875 50.953125 41.515625 
Q 57.328125 34.859375 57.328125 23.390625 
Q 57.328125 12.15625 50.6875 5.359375 
Q 44.046875 -1.421875 33.015625 -1.421875 
Q 20.359375 -1.421875 13.671875 8.265625 
Q 6.984375 17.96875 6.984375 36.375 
Q 6.984375 53.65625 15.1875 63.9375 
Q 23.390625 74.21875 37.203125 74.21875 
Q 40.921875 74.21875 44.703125 73.484375 
Q 48.484375 72.75 52.59375 71.296875 
z
" id="DejaVuSans-54"/>
      </defs>
      <g transform="translate(134.34472 590.080625)rotate(-90)scale(0.1 -0.1)">
       <use xlink:href="#DejaVuSans-54"/>
      </g>
     </g>
    </g>
    <g id="xtick_8">
     <g id="line2d_8">
      <g>
       <use style="stroke:#000000;stroke-width:0.8;" x="143.771552" xlink:href="#m00fb31e224" y="576.718125"/>
      </g>
     </g>
     <g id="text_8">
      <!-- 7 -->
      <defs>
       <path d="M 8.203125 72.90625 
L 55.078125 72.90625 
L 55.078125 68.703125 
L 28.609375 0 
L 18.3125 0 
L 43.21875 64.59375 
L 8.203125 64.59375 
z
" id="DejaVuSans-55"/>
      </defs>
      <g transform="translate(146.530927 590.080625)rotate(-90)scale(0.1 -0.1)">
       <use xlink:href="#DejaVuSans-55"/>
      </g>
     </g>
    </g>
    <g id="xtick_9">
     <g id="line2d_9">
      <g>
       <use style="stroke:#000000;stroke-width:0.8;" x="155.957759" xlink:href="#m00fb31e224" y="576.718125"/>
      </g>
     </g>
     <g id="text_9">
      <!-- 8 -->
      <defs>
       <path d="M 31.78125 34.625 
Q 24.75 34.625 20.71875 30.859375 
Q 16.703125 27.09375 16.703125 20.515625 
Q 16.703125 13.921875 20.71875 10.15625 
Q 24.75 6.390625 31.78125 6.390625 
Q 38.8125 6.390625 42.859375 10.171875 
Q 46.921875 13.96875 46.921875 20.515625 
Q 46.921875 27.09375 42.890625 30.859375 
Q 38.875 34.625 31.78125 34.625 
z
M 21.921875 38.8125 
Q 15.578125 40.375 12.03125 44.71875 
Q 8.5 49.078125 8.5 55.328125 
Q 8.5 64.0625 14.71875 69.140625 
Q 20.953125 74.21875 31.78125 74.21875 
Q 42.671875 74.21875 48.875 69.140625 
Q 55.078125 64.0625 55.078125 55.328125 
Q 55.078125 49.078125 51.53125 44.71875 
Q 48 40.375 41.703125 38.8125 
Q 48.828125 37.15625 52.796875 32.3125 
Q 56.78125 27.484375 56.78125 20.515625 
Q 56.78125 9.90625 50.3125 4.234375 
Q 43.84375 -1.421875 31.78125 -1.421875 
Q 19.734375 -1.421875 13.25 4.234375 
Q 6.78125 9.90625 6.78125 20.515625 
Q 6.78125 27.484375 10.78125 32.3125 
Q 14.796875 37.15625 21.921875 38.8125 
z
M 18.3125 54.390625 
Q 18.3125 48.734375 21.84375 45.5625 
Q 25.390625 42.390625 31.78125 42.390625 
Q 38.140625 42.390625 41.71875 45.5625 
Q 45.3125 48.734375 45.3125 54.390625 
Q 45.3125 60.0625 41.71875 63.234375 
Q 38.140625 66.40625 31.78125 66.40625 
Q 25.390625 66.40625 21.84375 63.234375 
Q 18.3125 60.0625 18.3125 54.390625 
z
" id="DejaVuSans-56"/>
      </defs>
      <g transform="translate(158.717134 590.080625)rotate(-90)scale(0.1 -0.1)">
       <use xlink:href="#DejaVuSans-56"/>
      </g>
     </g>
    </g>
    <g id="xtick_10">
     <g id="line2d_10">
      <g>
       <use style="stroke:#000000;stroke-width:0.8;" x="168.143966" xlink:href="#m00fb31e224" y="576.718125"/>
      </g>
     </g>
     <g id="text_10">
      <!-- 9 -->
      <defs>
       <path d="M 10.984375 1.515625 
L 10.984375 10.5 
Q 14.703125 8.734375 18.5 7.8125 
Q 22.3125 6.890625 25.984375 6.890625 
Q 35.75 6.890625 40.890625 13.453125 
Q 46.046875 20.015625 46.78125 33.40625 
Q 43.953125 29.203125 39.59375 26.953125 
Q 35.25 24.703125 29.984375 24.703125 
Q 19.046875 24.703125 12.671875 31.3125 
Q 6.296875 37.9375 6.296875 49.421875 
Q 6.296875 60.640625 12.9375 67.421875 
Q 19.578125 74.21875 30.609375 74.21875 
Q 43.265625 74.21875 49.921875 64.515625 
Q 56.59375 54.828125 56.59375 36.375 
Q 56.59375 19.140625 48.40625 8.859375 
Q 40.234375 -1.421875 26.421875 -1.421875 
Q 22.703125 -1.421875 18.890625 -0.6875 
Q 15.09375 0.046875 10.984375 1.515625 
z
M 30.609375 32.421875 
Q 37.25 32.421875 41.125 36.953125 
Q 45.015625 41.5 45.015625 49.421875 
Q 45.015625 57.28125 41.125 61.84375 
Q 37.25 66.40625 30.609375 66.40625 
Q 23.96875 66.40625 20.09375 61.84375 
Q 16.21875 57.28125 16.21875 49.421875 
Q 16.21875 41.5 20.09375 36.953125 
Q 23.96875 32.421875 30.609375 32.421875 
z
" id="DejaVuSans-57"/>
      </defs>
      <g transform="translate(170.903341 590.080625)rotate(-90)scale(0.1 -0.1)">
       <use xlink:href="#DejaVuSans-57"/>
      </g>
     </g>
    </g>
    <g id="xtick_11">
     <g id="line2d_11">
      <g>
       <use style="stroke:#000000;stroke-width:0.8;" x="180.330172" xlink:href="#m00fb31e224" y="576.718125"/>
      </g>
     </g>
     <g id="text_11">
      <!-- 10 -->
      <g transform="translate(183.089547 596.443125)rotate(-90)scale(0.1 -0.1)">
       <use xlink:href="#DejaVuSans-49"/>
       <use x="63.623047" xlink:href="#DejaVuSans-48"/>
      </g>
     </g>
    </g>
    <g id="xtick_12">
     <g id="line2d_12">
      <g>
       <use style="stroke:#000000;stroke-width:0.8;" x="192.516379" xlink:href="#m00fb31e224" y="576.718125"/>
      </g>
     </g>
     <g id="text_12">
      <!-- 11 -->
      <g transform="translate(195.275754 596.443125)rotate(-90)scale(0.1 -0.1)">
       <use xlink:href="#DejaVuSans-49"/>
       <use x="63.623047" xlink:href="#DejaVuSans-49"/>
      </g>
     </g>
    </g>
    <g id="xtick_13">
     <g id="line2d_13">
      <g>
       <use style="stroke:#000000;stroke-width:0.8;" x="204.702586" xlink:href="#m00fb31e224" y="576.718125"/>
      </g>
     </g>
     <g id="text_13">
      <!-- 12 -->
      <g transform="translate(207.461961 596.443125)rotate(-90)scale(0.1 -0.1)">
       <use xlink:href="#DejaVuSans-49"/>
       <use x="63.623047" xlink:href="#DejaVuSans-50"/>
      </g>
     </g>
    </g>
    <g id="xtick_14">
     <g id="line2d_14">
      <g>
       <use style="stroke:#000000;stroke-width:0.8;" x="216.888793" xlink:href="#m00fb31e224" y="576.718125"/>
      </g>
     </g>
     <g id="text_14">
      <!-- 13 -->
      <g transform="translate(219.648168 596.443125)rotate(-90)scale(0.1 -0.1)">
       <use xlink:href="#DejaVuSans-49"/>
       <use x="63.623047" xlink:href="#DejaVuSans-51"/>
      </g>
     </g>
    </g>
    <g id="xtick_15">
     <g id="line2d_15">
      <g>
       <use style="stroke:#000000;stroke-width:0.8;" x="229.075" xlink:href="#m00fb31e224" y="576.718125"/>
      </g>
     </g>
     <g id="text_15">
      <!-- 14 -->
      <g transform="translate(231.834375 596.443125)rotate(-90)scale(0.1 -0.1)">
       <use xlink:href="#DejaVuSans-49"/>
       <use x="63.623047" xlink:href="#DejaVuSans-52"/>
      </g>
     </g>
    </g>
    <g id="xtick_16">
     <g id="line2d_16">
      <g>
       <use style="stroke:#000000;stroke-width:0.8;" x="241.261207" xlink:href="#m00fb31e224" y="576.718125"/>
      </g>
     </g>
     <g id="text_16">
      <!-- 15 -->
      <g transform="translate(244.020582 596.443125)rotate(-90)scale(0.1 -0.1)">
       <use xlink:href="#DejaVuSans-49"/>
       <use x="63.623047" xlink:href="#DejaVuSans-53"/>
      </g>
     </g>
    </g>
    <g id="xtick_17">
     <g id="line2d_17">
      <g>
       <use style="stroke:#000000;stroke-width:0.8;" x="253.447414" xlink:href="#m00fb31e224" y="576.718125"/>
      </g>
     </g>
     <g id="text_17">
      <!-- 16 -->
      <g transform="translate(256.206789 596.443125)rotate(-90)scale(0.1 -0.1)">
       <use xlink:href="#DejaVuSans-49"/>
       <use x="63.623047" xlink:href="#DejaVuSans-54"/>
      </g>
     </g>
    </g>
    <g id="xtick_18">
     <g id="line2d_18">
      <g>
       <use style="stroke:#000000;stroke-width:0.8;" x="265.633621" xlink:href="#m00fb31e224" y="576.718125"/>
      </g>
     </g>
     <g id="text_18">
      <!-- 17 -->
      <g transform="translate(268.392996 596.443125)rotate(-90)scale(0.1 -0.1)">
       <use xlink:href="#DejaVuSans-49"/>
       <use x="63.623047" xlink:href="#DejaVuSans-55"/>
      </g>
     </g>
    </g>
    <g id="xtick_19">
     <g id="line2d_19">
      <g>
       <use style="stroke:#000000;stroke-width:0.8;" x="277.819828" xlink:href="#m00fb31e224" y="576.718125"/>
      </g>
     </g>
     <g id="text_19">
      <!-- 18 -->
      <g transform="translate(280.579203 596.443125)rotate(-90)scale(0.1 -0.1)">
       <use xlink:href="#DejaVuSans-49"/>
       <use x="63.623047" xlink:href="#DejaVuSans-56"/>
      </g>
     </g>
    </g>
    <g id="xtick_20">
     <g id="line2d_20">
      <g>
       <use style="stroke:#000000;stroke-width:0.8;" x="290.006034" xlink:href="#m00fb31e224" y="576.718125"/>
      </g>
     </g>
     <g id="text_20">
      <!-- 19 -->
      <g transform="translate(292.765409 596.443125)rotate(-90)scale(0.1 -0.1)">
       <use xlink:href="#DejaVuSans-49"/>
       <use x="63.623047" xlink:href="#DejaVuSans-57"/>
      </g>
     </g>
    </g>
    <g id="xtick_21">
     <g id="line2d_21">
      <g>
       <use style="stroke:#000000;stroke-width:0.8;" x="302.192241" xlink:href="#m00fb31e224" y="576.718125"/>
      </g>
     </g>
     <g id="text_21">
      <!-- 20 -->
      <g transform="translate(304.951616 596.443125)rotate(-90)scale(0.1 -0.1)">
       <use xlink:href="#DejaVuSans-50"/>
       <use x="63.623047" xlink:href="#DejaVuSans-48"/>
      </g>
     </g>
    </g>
    <g id="xtick_22">
     <g id="line2d_22">
      <g>
       <use style="stroke:#000000;stroke-width:0.8;" x="314.378448" xlink:href="#m00fb31e224" y="576.718125"/>
      </g>
     </g>
     <g id="text_22">
      <!-- 21 -->
      <g transform="translate(317.137823 596.443125)rotate(-90)scale(0.1 -0.1)">
       <use xlink:href="#DejaVuSans-50"/>
       <use x="63.623047" xlink:href="#DejaVuSans-49"/>
      </g>
     </g>
    </g>
    <g id="xtick_23">
     <g id="line2d_23">
      <g>
       <use style="stroke:#000000;stroke-width:0.8;" x="326.564655" xlink:href="#m00fb31e224" y="576.718125"/>
      </g>
     </g>
     <g id="text_23">
      <!-- 22 -->
      <g transform="translate(329.32403 596.443125)rotate(-90)scale(0.1 -0.1)">
       <use xlink:href="#DejaVuSans-50"/>
       <use x="63.623047" xlink:href="#DejaVuSans-50"/>
      </g>
     </g>
    </g>
    <g id="xtick_24">
     <g id="line2d_24">
      <g>
       <use style="stroke:#000000;stroke-width:0.8;" x="338.750862" xlink:href="#m00fb31e224" y="576.718125"/>
      </g>
     </g>
     <g id="text_24">
      <!-- 23 -->
      <g transform="translate(341.510237 596.443125)rotate(-90)scale(0.1 -0.1)">
       <use xlink:href="#DejaVuSans-50"/>
       <use x="63.623047" xlink:href="#DejaVuSans-51"/>
      </g>
     </g>
    </g>
    <g id="xtick_25">
     <g id="line2d_25">
      <g>
       <use style="stroke:#000000;stroke-width:0.8;" x="350.937069" xlink:href="#m00fb31e224" y="576.718125"/>
      </g>
     </g>
     <g id="text_25">
      <!-- 24 -->
      <g transform="translate(353.696444 596.443125)rotate(-90)scale(0.1 -0.1)">
       <use xlink:href="#DejaVuSans-50"/>
       <use x="63.623047" xlink:href="#DejaVuSans-52"/>
      </g>
     </g>
    </g>
    <g id="xtick_26">
     <g id="line2d_26">
      <g>
       <use style="stroke:#000000;stroke-width:0.8;" x="363.123276" xlink:href="#m00fb31e224" y="576.718125"/>
      </g>
     </g>
     <g id="text_26">
      <!-- 25 -->
      <g transform="translate(365.882651 596.443125)rotate(-90)scale(0.1 -0.1)">
       <use xlink:href="#DejaVuSans-50"/>
       <use x="63.623047" xlink:href="#DejaVuSans-53"/>
      </g>
     </g>
    </g>
    <g id="xtick_27">
     <g id="line2d_27">
      <g>
       <use style="stroke:#000000;stroke-width:0.8;" x="375.309483" xlink:href="#m00fb31e224" y="576.718125"/>
      </g>
     </g>
     <g id="text_27">
      <!-- 26 -->
      <g transform="translate(378.068858 596.443125)rotate(-90)scale(0.1 -0.1)">
       <use xlink:href="#DejaVuSans-50"/>
       <use x="63.623047" xlink:href="#DejaVuSans-54"/>
      </g>
     </g>
    </g>
    <g id="xtick_28">
     <g id="line2d_28">
      <g>
       <use style="stroke:#000000;stroke-width:0.8;" x="387.49569" xlink:href="#m00fb31e224" y="576.718125"/>
      </g>
     </g>
     <g id="text_28">
      <!-- 27 -->
      <g transform="translate(390.255065 596.443125)rotate(-90)scale(0.1 -0.1)">
       <use xlink:href="#DejaVuSans-50"/>
       <use x="63.623047" xlink:href="#DejaVuSans-55"/>
      </g>
     </g>
    </g>
    <g id="xtick_29">
     <g id="line2d_29">
      <g>
       <use style="stroke:#000000;stroke-width:0.8;" x="399.681897" xlink:href="#m00fb31e224" y="576.718125"/>
      </g>
     </g>
     <g id="text_29">
      <!-- 28 -->
      <g transform="translate(402.441272 596.443125)rotate(-90)scale(0.1 -0.1)">
       <use xlink:href="#DejaVuSans-50"/>
       <use x="63.623047" xlink:href="#DejaVuSans-56"/>
      </g>
     </g>
    </g>
    <g id="xtick_30">
     <g id="line2d_30">
      <g>
       <use style="stroke:#000000;stroke-width:0.8;" x="411.868103" xlink:href="#m00fb31e224" y="576.718125"/>
      </g>
     </g>
     <g id="text_30">
      <!-- 29 -->
      <g transform="translate(414.627478 596.443125)rotate(-90)scale(0.1 -0.1)">
       <use xlink:href="#DejaVuSans-50"/>
       <use x="63.623047" xlink:href="#DejaVuSans-57"/>
      </g>
     </g>
    </g>
    <g id="xtick_31">
     <g id="line2d_31">
      <g>
       <use style="stroke:#000000;stroke-width:0.8;" x="424.05431" xlink:href="#m00fb31e224" y="576.718125"/>
      </g>
     </g>
     <g id="text_31">
      <!-- 30 -->
      <g transform="translate(426.813685 596.443125)rotate(-90)scale(0.1 -0.1)">
       <use xlink:href="#DejaVuSans-51"/>
       <use x="63.623047" xlink:href="#DejaVuSans-48"/>
      </g>
     </g>
    </g>
    <g id="xtick_32">
     <g id="line2d_32">
      <g>
       <use style="stroke:#000000;stroke-width:0.8;" x="436.240517" xlink:href="#m00fb31e224" y="576.718125"/>
      </g>
     </g>
     <g id="text_32">
      <!-- 31 -->
      <g transform="translate(438.999892 596.443125)rotate(-90)scale(0.1 -0.1)">
       <use xlink:href="#DejaVuSans-51"/>
       <use x="63.623047" xlink:href="#DejaVuSans-49"/>
      </g>
     </g>
    </g>
    <g id="xtick_33">
     <g id="line2d_33">
      <g>
       <use style="stroke:#000000;stroke-width:0.8;" x="448.426724" xlink:href="#m00fb31e224" y="576.718125"/>
      </g>
     </g>
     <g id="text_33">
      <!-- 32 -->
      <g transform="translate(451.186099 596.443125)rotate(-90)scale(0.1 -0.1)">
       <use xlink:href="#DejaVuSans-51"/>
       <use x="63.623047" xlink:href="#DejaVuSans-50"/>
      </g>
     </g>
    </g>
    <g id="xtick_34">
     <g id="line2d_34">
      <g>
       <use style="stroke:#000000;stroke-width:0.8;" x="460.612931" xlink:href="#m00fb31e224" y="576.718125"/>
      </g>
     </g>
     <g id="text_34">
      <!-- 33 -->
      <g transform="translate(463.372306 596.443125)rotate(-90)scale(0.1 -0.1)">
       <use xlink:href="#DejaVuSans-51"/>
       <use x="63.623047" xlink:href="#DejaVuSans-51"/>
      </g>
     </g>
    </g>
    <g id="xtick_35">
     <g id="line2d_35">
      <g>
       <use style="stroke:#000000;stroke-width:0.8;" x="472.799138" xlink:href="#m00fb31e224" y="576.718125"/>
      </g>
     </g>
     <g id="text_35">
      <!-- 34 -->
      <g transform="translate(475.558513 596.443125)rotate(-90)scale(0.1 -0.1)">
       <use xlink:href="#DejaVuSans-51"/>
       <use x="63.623047" xlink:href="#DejaVuSans-52"/>
      </g>
     </g>
    </g>
    <g id="xtick_36">
     <g id="line2d_36">
      <g>
       <use style="stroke:#000000;stroke-width:0.8;" x="484.985345" xlink:href="#m00fb31e224" y="576.718125"/>
      </g>
     </g>
     <g id="text_36">
      <!-- 35 -->
      <g transform="translate(487.74472 596.443125)rotate(-90)scale(0.1 -0.1)">
       <use xlink:href="#DejaVuSans-51"/>
       <use x="63.623047" xlink:href="#DejaVuSans-53"/>
      </g>
     </g>
    </g>
    <g id="xtick_37">
     <g id="line2d_37">
      <g>
       <use style="stroke:#000000;stroke-width:0.8;" x="497.171552" xlink:href="#m00fb31e224" y="576.718125"/>
      </g>
     </g>
     <g id="text_37">
      <!-- 36 -->
      <g transform="translate(499.930927 596.443125)rotate(-90)scale(0.1 -0.1)">
       <use xlink:href="#DejaVuSans-51"/>
       <use x="63.623047" xlink:href="#DejaVuSans-54"/>
      </g>
     </g>
    </g>
    <g id="xtick_38">
     <g id="line2d_38">
      <g>
       <use style="stroke:#000000;stroke-width:0.8;" x="509.357759" xlink:href="#m00fb31e224" y="576.718125"/>
      </g>
     </g>
     <g id="text_38">
      <!-- 37 -->
      <g transform="translate(512.117134 596.443125)rotate(-90)scale(0.1 -0.1)">
       <use xlink:href="#DejaVuSans-51"/>
       <use x="63.623047" xlink:href="#DejaVuSans-55"/>
      </g>
     </g>
    </g>
    <g id="xtick_39">
     <g id="line2d_39">
      <g>
       <use style="stroke:#000000;stroke-width:0.8;" x="521.543966" xlink:href="#m00fb31e224" y="576.718125"/>
      </g>
     </g>
     <g id="text_39">
      <!-- 38 -->
      <g transform="translate(524.303341 596.443125)rotate(-90)scale(0.1 -0.1)">
       <use xlink:href="#DejaVuSans-51"/>
       <use x="63.623047" xlink:href="#DejaVuSans-56"/>
      </g>
     </g>
    </g>
    <g id="xtick_40">
     <g id="line2d_40">
      <g>
       <use style="stroke:#000000;stroke-width:0.8;" x="533.730172" xlink:href="#m00fb31e224" y="576.718125"/>
      </g>
     </g>
     <g id="text_40">
      <!-- 39 -->
      <g transform="translate(536.489547 596.443125)rotate(-90)scale(0.1 -0.1)">
       <use xlink:href="#DejaVuSans-51"/>
       <use x="63.623047" xlink:href="#DejaVuSans-57"/>
      </g>
     </g>
    </g>
    <g id="xtick_41">
     <g id="line2d_41">
      <g>
       <use style="stroke:#000000;stroke-width:0.8;" x="545.916379" xlink:href="#m00fb31e224" y="576.718125"/>
      </g>
     </g>
     <g id="text_41">
      <!-- 40 -->
      <g transform="translate(548.675754 596.443125)rotate(-90)scale(0.1 -0.1)">
       <use xlink:href="#DejaVuSans-52"/>
       <use x="63.623047" xlink:href="#DejaVuSans-48"/>
      </g>
     </g>
    </g>
    <g id="xtick_42">
     <g id="line2d_42">
      <g>
       <use style="stroke:#000000;stroke-width:0.8;" x="558.102586" xlink:href="#m00fb31e224" y="576.718125"/>
      </g>
     </g>
     <g id="text_42">
      <!-- 41 -->
      <g transform="translate(560.861961 596.443125)rotate(-90)scale(0.1 -0.1)">
       <use xlink:href="#DejaVuSans-52"/>
       <use x="63.623047" xlink:href="#DejaVuSans-49"/>
      </g>
     </g>
    </g>
    <g id="xtick_43">
     <g id="line2d_43">
      <g>
       <use style="stroke:#000000;stroke-width:0.8;" x="570.288793" xlink:href="#m00fb31e224" y="576.718125"/>
      </g>
     </g>
     <g id="text_43">
      <!-- 42 -->
      <g transform="translate(573.048168 596.443125)rotate(-90)scale(0.1 -0.1)">
       <use xlink:href="#DejaVuSans-52"/>
       <use x="63.623047" xlink:href="#DejaVuSans-50"/>
      </g>
     </g>
    </g>
    <g id="xtick_44">
     <g id="line2d_44">
      <g>
       <use style="stroke:#000000;stroke-width:0.8;" x="582.475" xlink:href="#m00fb31e224" y="576.718125"/>
      </g>
     </g>
     <g id="text_44">
      <!-- 43 -->
      <g transform="translate(585.234375 596.443125)rotate(-90)scale(0.1 -0.1)">
       <use xlink:href="#DejaVuSans-52"/>
       <use x="63.623047" xlink:href="#DejaVuSans-51"/>
      </g>
     </g>
    </g>
    <g id="xtick_45">
     <g id="line2d_45">
      <g>
       <use style="stroke:#000000;stroke-width:0.8;" x="594.661207" xlink:href="#m00fb31e224" y="576.718125"/>
      </g>
     </g>
     <g id="text_45">
      <!-- 44 -->
      <g transform="translate(597.420582 596.443125)rotate(-90)scale(0.1 -0.1)">
       <use xlink:href="#DejaVuSans-52"/>
       <use x="63.623047" xlink:href="#DejaVuSans-52"/>
      </g>
     </g>
    </g>
    <g id="xtick_46">
     <g id="line2d_46">
      <g>
       <use style="stroke:#000000;stroke-width:0.8;" x="606.847414" xlink:href="#m00fb31e224" y="576.718125"/>
      </g>
     </g>
     <g id="text_46">
      <!-- 45 -->
      <g transform="translate(609.606789 596.443125)rotate(-90)scale(0.1 -0.1)">
       <use xlink:href="#DejaVuSans-52"/>
       <use x="63.623047" xlink:href="#DejaVuSans-53"/>
      </g>
     </g>
    </g>
    <g id="xtick_47">
     <g id="line2d_47">
      <g>
       <use style="stroke:#000000;stroke-width:0.8;" x="619.033621" xlink:href="#m00fb31e224" y="576.718125"/>
      </g>
     </g>
     <g id="text_47">
      <!-- 46 -->
      <g transform="translate(621.792996 596.443125)rotate(-90)scale(0.1 -0.1)">
       <use xlink:href="#DejaVuSans-52"/>
       <use x="63.623047" xlink:href="#DejaVuSans-54"/>
      </g>
     </g>
    </g>
    <g id="xtick_48">
     <g id="line2d_48">
      <g>
       <use style="stroke:#000000;stroke-width:0.8;" x="631.219828" xlink:href="#m00fb31e224" y="576.718125"/>
      </g>
     </g>
     <g id="text_48">
      <!-- 47 -->
      <g transform="translate(633.979203 596.443125)rotate(-90)scale(0.1 -0.1)">
       <use xlink:href="#DejaVuSans-52"/>
       <use x="63.623047" xlink:href="#DejaVuSans-55"/>
      </g>
     </g>
    </g>
    <g id="xtick_49">
     <g id="line2d_49">
      <g>
       <use style="stroke:#000000;stroke-width:0.8;" x="643.406034" xlink:href="#m00fb31e224" y="576.718125"/>
      </g>
     </g>
     <g id="text_49">
      <!-- 48 -->
      <g transform="translate(646.165409 596.443125)rotate(-90)scale(0.1 -0.1)">
       <use xlink:href="#DejaVuSans-52"/>
       <use x="63.623047" xlink:href="#DejaVuSans-56"/>
      </g>
     </g>
    </g>
    <g id="xtick_50">
     <g id="line2d_50">
      <g>
       <use style="stroke:#000000;stroke-width:0.8;" x="655.592241" xlink:href="#m00fb31e224" y="576.718125"/>
      </g>
     </g>
     <g id="text_50">
      <!-- 49 -->
      <g transform="translate(658.351616 596.443125)rotate(-90)scale(0.1 -0.1)">
       <use xlink:href="#DejaVuSans-52"/>
       <use x="63.623047" xlink:href="#DejaVuSans-57"/>
      </g>
     </g>
    </g>
    <g id="xtick_51">
     <g id="line2d_51">
      <g>
       <use style="stroke:#000000;stroke-width:0.8;" x="667.778448" xlink:href="#m00fb31e224" y="576.718125"/>
      </g>
     </g>
     <g id="text_51">
      <!-- 50 -->
      <g transform="translate(670.537823 596.443125)rotate(-90)scale(0.1 -0.1)">
       <use xlink:href="#DejaVuSans-53"/>
       <use x="63.623047" xlink:href="#DejaVuSans-48"/>
      </g>
     </g>
    </g>
    <g id="xtick_52">
     <g id="line2d_52">
      <g>
       <use style="stroke:#000000;stroke-width:0.8;" x="679.964655" xlink:href="#m00fb31e224" y="576.718125"/>
      </g>
     </g>
     <g id="text_52">
      <!-- 51 -->
      <g transform="translate(682.72403 596.443125)rotate(-90)scale(0.1 -0.1)">
       <use xlink:href="#DejaVuSans-53"/>
       <use x="63.623047" xlink:href="#DejaVuSans-49"/>
      </g>
     </g>
    </g>
    <g id="xtick_53">
     <g id="line2d_53">
      <g>
       <use style="stroke:#000000;stroke-width:0.8;" x="692.150862" xlink:href="#m00fb31e224" y="576.718125"/>
      </g>
     </g>
     <g id="text_53">
      <!-- 52 -->
      <g transform="translate(694.910237 596.443125)rotate(-90)scale(0.1 -0.1)">
       <use xlink:href="#DejaVuSans-53"/>
       <use x="63.623047" xlink:href="#DejaVuSans-50"/>
      </g>
     </g>
    </g>
    <g id="xtick_54">
     <g id="line2d_54">
      <g>
       <use style="stroke:#000000;stroke-width:0.8;" x="704.337069" xlink:href="#m00fb31e224" y="576.718125"/>
      </g>
     </g>
     <g id="text_54">
      <!-- 53 -->
      <g transform="translate(707.096444 596.443125)rotate(-90)scale(0.1 -0.1)">
       <use xlink:href="#DejaVuSans-53"/>
       <use x="63.623047" xlink:href="#DejaVuSans-51"/>
      </g>
     </g>
    </g>
    <g id="xtick_55">
     <g id="line2d_55">
      <g>
       <use style="stroke:#000000;stroke-width:0.8;" x="716.523276" xlink:href="#m00fb31e224" y="576.718125"/>
      </g>
     </g>
     <g id="text_55">
      <!-- 54 -->
      <g transform="translate(719.282651 596.443125)rotate(-90)scale(0.1 -0.1)">
       <use xlink:href="#DejaVuSans-53"/>
       <use x="63.623047" xlink:href="#DejaVuSans-52"/>
      </g>
     </g>
    </g>
    <g id="xtick_56">
     <g id="line2d_56">
      <g>
       <use style="stroke:#000000;stroke-width:0.8;" x="728.709483" xlink:href="#m00fb31e224" y="576.718125"/>
      </g>
     </g>
     <g id="text_56">
      <!-- 55 -->
      <g transform="translate(731.468858 596.443125)rotate(-90)scale(0.1 -0.1)">
       <use xlink:href="#DejaVuSans-53"/>
       <use x="63.623047" xlink:href="#DejaVuSans-53"/>
      </g>
     </g>
    </g>
    <g id="xtick_57">
     <g id="line2d_57">
      <g>
       <use style="stroke:#000000;stroke-width:0.8;" x="740.89569" xlink:href="#m00fb31e224" y="576.718125"/>
      </g>
     </g>
     <g id="text_57">
      <!-- 56 -->
      <g transform="translate(743.655065 596.443125)rotate(-90)scale(0.1 -0.1)">
       <use xlink:href="#DejaVuSans-53"/>
       <use x="63.623047" xlink:href="#DejaVuSans-54"/>
      </g>
     </g>
    </g>
    <g id="xtick_58">
     <g id="line2d_58">
      <g>
       <use style="stroke:#000000;stroke-width:0.8;" x="753.081897" xlink:href="#m00fb31e224" y="576.718125"/>
      </g>
     </g>
     <g id="text_58">
      <!-- 57 -->
      <g transform="translate(755.841272 596.443125)rotate(-90)scale(0.1 -0.1)">
       <use xlink:href="#DejaVuSans-53"/>
       <use x="63.623047" xlink:href="#DejaVuSans-55"/>
      </g>
     </g>
    </g>
    <g id="xtick_59">
     <g id="line2d_59">
      <g>
       <use style="stroke:#000000;stroke-width:0.8;" x="765.268103" xlink:href="#m00fb31e224" y="576.718125"/>
      </g>
     </g>
     <g id="text_59">
      <!-- 58 -->
      <g transform="translate(768.027478 596.443125)rotate(-90)scale(0.1 -0.1)">
       <use xlink:href="#DejaVuSans-53"/>
       <use x="63.623047" xlink:href="#DejaVuSans-56"/>
      </g>
     </g>
    </g>
    <g id="xtick_60">
     <g id="line2d_60">
      <g>
       <use style="stroke:#000000;stroke-width:0.8;" x="777.45431" xlink:href="#m00fb31e224" y="576.718125"/>
      </g>
     </g>
     <g id="text_60">
      <!-- 59 -->
      <g transform="translate(780.213685 596.443125)rotate(-90)scale(0.1 -0.1)">
       <use xlink:href="#DejaVuSans-53"/>
       <use x="63.623047" xlink:href="#DejaVuSans-57"/>
      </g>
     </g>
    </g>
    <g id="xtick_61">
     <g id="line2d_61">
      <g>
       <use style="stroke:#000000;stroke-width:0.8;" x="789.640517" xlink:href="#m00fb31e224" y="576.718125"/>
      </g>
     </g>
     <g id="text_61">
      <!-- 60 -->
      <g transform="translate(792.399892 596.443125)rotate(-90)scale(0.1 -0.1)">
       <use xlink:href="#DejaVuSans-54"/>
       <use x="63.623047" xlink:href="#DejaVuSans-48"/>
      </g>
     </g>
    </g>
    <g id="xtick_62">
     <g id="line2d_62">
      <g>
       <use style="stroke:#000000;stroke-width:0.8;" x="801.826724" xlink:href="#m00fb31e224" y="576.718125"/>
      </g>
     </g>
     <g id="text_62">
      <!-- 61 -->
      <g transform="translate(804.586099 596.443125)rotate(-90)scale(0.1 -0.1)">
       <use xlink:href="#DejaVuSans-54"/>
       <use x="63.623047" xlink:href="#DejaVuSans-49"/>
      </g>
     </g>
    </g>
    <g id="xtick_63">
     <g id="line2d_63">
      <g>
       <use style="stroke:#000000;stroke-width:0.8;" x="814.012931" xlink:href="#m00fb31e224" y="576.718125"/>
      </g>
     </g>
     <g id="text_63">
      <!-- 62 -->
      <g transform="translate(816.772306 596.443125)rotate(-90)scale(0.1 -0.1)">
       <use xlink:href="#DejaVuSans-54"/>
       <use x="63.623047" xlink:href="#DejaVuSans-50"/>
      </g>
     </g>
    </g>
    <g id="xtick_64">
     <g id="line2d_64">
      <g>
       <use style="stroke:#000000;stroke-width:0.8;" x="826.199138" xlink:href="#m00fb31e224" y="576.718125"/>
      </g>
     </g>
     <g id="text_64">
      <!-- 63 -->
      <g transform="translate(828.958513 596.443125)rotate(-90)scale(0.1 -0.1)">
       <use xlink:href="#DejaVuSans-54"/>
       <use x="63.623047" xlink:href="#DejaVuSans-51"/>
      </g>
     </g>
    </g>
    <g id="xtick_65">
     <g id="line2d_65">
      <g>
       <use style="stroke:#000000;stroke-width:0.8;" x="838.385345" xlink:href="#m00fb31e224" y="576.718125"/>
      </g>
     </g>
     <g id="text_65">
      <!-- 64 -->
      <g transform="translate(841.14472 596.443125)rotate(-90)scale(0.1 -0.1)">
       <use xlink:href="#DejaVuSans-54"/>
       <use x="63.623047" xlink:href="#DejaVuSans-52"/>
      </g>
     </g>
    </g>
    <g id="xtick_66">
     <g id="line2d_66">
      <g>
       <use style="stroke:#000000;stroke-width:0.8;" x="850.571552" xlink:href="#m00fb31e224" y="576.718125"/>
      </g>
     </g>
     <g id="text_66">
      <!-- 65 -->
      <g transform="translate(853.330927 596.443125)rotate(-90)scale(0.1 -0.1)">
       <use xlink:href="#DejaVuSans-54"/>
       <use x="63.623047" xlink:href="#DejaVuSans-53"/>
      </g>
     </g>
    </g>
    <g id="xtick_67">
     <g id="line2d_67">
      <g>
       <use style="stroke:#000000;stroke-width:0.8;" x="862.757759" xlink:href="#m00fb31e224" y="576.718125"/>
      </g>
     </g>
     <g id="text_67">
      <!-- 66 -->
      <g transform="translate(865.517134 596.443125)rotate(-90)scale(0.1 -0.1)">
       <use xlink:href="#DejaVuSans-54"/>
       <use x="63.623047" xlink:href="#DejaVuSans-54"/>
      </g>
     </g>
    </g>
    <g id="xtick_68">
     <g id="line2d_68">
      <g>
       <use style="stroke:#000000;stroke-width:0.8;" x="874.943966" xlink:href="#m00fb31e224" y="576.718125"/>
      </g>
     </g>
     <g id="text_68">
      <!-- 67 -->
      <g transform="translate(877.703341 596.443125)rotate(-90)scale(0.1 -0.1)">
       <use xlink:href="#DejaVuSans-54"/>
       <use x="63.623047" xlink:href="#DejaVuSans-55"/>
      </g>
     </g>
    </g>
    <g id="xtick_69">
     <g id="line2d_69">
      <g>
       <use style="stroke:#000000;stroke-width:0.8;" x="887.130172" xlink:href="#m00fb31e224" y="576.718125"/>
      </g>
     </g>
     <g id="text_69">
      <!-- 68 -->
      <g transform="translate(889.889547 596.443125)rotate(-90)scale(0.1 -0.1)">
       <use xlink:href="#DejaVuSans-54"/>
       <use x="63.623047" xlink:href="#DejaVuSans-56"/>
      </g>
     </g>
    </g>
    <g id="xtick_70">
     <g id="line2d_70">
      <g>
       <use style="stroke:#000000;stroke-width:0.8;" x="899.316379" xlink:href="#m00fb31e224" y="576.718125"/>
      </g>
     </g>
     <g id="text_70">
      <!-- 69 -->
      <g transform="translate(902.075754 596.443125)rotate(-90)scale(0.1 -0.1)">
       <use xlink:href="#DejaVuSans-54"/>
       <use x="63.623047" xlink:href="#DejaVuSans-57"/>
      </g>
     </g>
    </g>
    <g id="xtick_71">
     <g id="line2d_71">
      <g>
       <use style="stroke:#000000;stroke-width:0.8;" x="911.502586" xlink:href="#m00fb31e224" y="576.718125"/>
      </g>
     </g>
     <g id="text_71">
      <!-- 70 -->
      <g transform="translate(914.261961 596.443125)rotate(-90)scale(0.1 -0.1)">
       <use xlink:href="#DejaVuSans-55"/>
       <use x="63.623047" xlink:href="#DejaVuSans-48"/>
      </g>
     </g>
    </g>
    <g id="xtick_72">
     <g id="line2d_72">
      <g>
       <use style="stroke:#000000;stroke-width:0.8;" x="923.688793" xlink:href="#m00fb31e224" y="576.718125"/>
      </g>
     </g>
     <g id="text_72">
      <!-- 71 -->
      <g transform="translate(926.448168 596.443125)rotate(-90)scale(0.1 -0.1)">
       <use xlink:href="#DejaVuSans-55"/>
       <use x="63.623047" xlink:href="#DejaVuSans-49"/>
      </g>
     </g>
    </g>
    <g id="xtick_73">
     <g id="line2d_73">
      <g>
       <use style="stroke:#000000;stroke-width:0.8;" x="935.875" xlink:href="#m00fb31e224" y="576.718125"/>
      </g>
     </g>
     <g id="text_73">
      <!-- 72 -->
      <g transform="translate(938.634375 596.443125)rotate(-90)scale(0.1 -0.1)">
       <use xlink:href="#DejaVuSans-55"/>
       <use x="63.623047" xlink:href="#DejaVuSans-50"/>
      </g>
     </g>
    </g>
    <g id="xtick_74">
     <g id="line2d_74">
      <g>
       <use style="stroke:#000000;stroke-width:0.8;" x="948.061207" xlink:href="#m00fb31e224" y="576.718125"/>
      </g>
     </g>
     <g id="text_74">
      <!-- 73 -->
      <g transform="translate(950.820582 596.443125)rotate(-90)scale(0.1 -0.1)">
       <use xlink:href="#DejaVuSans-55"/>
       <use x="63.623047" xlink:href="#DejaVuSans-51"/>
      </g>
     </g>
    </g>
    <g id="xtick_75">
     <g id="line2d_75">
      <g>
       <use style="stroke:#000000;stroke-width:0.8;" x="960.247414" xlink:href="#m00fb31e224" y="576.718125"/>
      </g>
     </g>
     <g id="text_75">
      <!-- 74 -->
      <g transform="translate(963.006789 596.443125)rotate(-90)scale(0.1 -0.1)">
       <use xlink:href="#DejaVuSans-55"/>
       <use x="63.623047" xlink:href="#DejaVuSans-52"/>
      </g>
     </g>
    </g>
    <g id="xtick_76">
     <g id="line2d_76">
      <g>
       <use style="stroke:#000000;stroke-width:0.8;" x="972.433621" xlink:href="#m00fb31e224" y="576.718125"/>
      </g>
     </g>
     <g id="text_76">
      <!-- 75 -->
      <g transform="translate(975.192996 596.443125)rotate(-90)scale(0.1 -0.1)">
       <use xlink:href="#DejaVuSans-55"/>
       <use x="63.623047" xlink:href="#DejaVuSans-53"/>
      </g>
     </g>
    </g>
    <g id="xtick_77">
     <g id="line2d_77">
      <g>
       <use style="stroke:#000000;stroke-width:0.8;" x="984.619828" xlink:href="#m00fb31e224" y="576.718125"/>
      </g>
     </g>
     <g id="text_77">
      <!-- 76 -->
      <g transform="translate(987.379203 596.443125)rotate(-90)scale(0.1 -0.1)">
       <use xlink:href="#DejaVuSans-55"/>
       <use x="63.623047" xlink:href="#DejaVuSans-54"/>
      </g>
     </g>
    </g>
    <g id="xtick_78">
     <g id="line2d_78">
      <g>
       <use style="stroke:#000000;stroke-width:0.8;" x="996.806034" xlink:href="#m00fb31e224" y="576.718125"/>
      </g>
     </g>
     <g id="text_78">
      <!-- 77 -->
      <g transform="translate(999.565409 596.443125)rotate(-90)scale(0.1 -0.1)">
       <use xlink:href="#DejaVuSans-55"/>
       <use x="63.623047" xlink:href="#DejaVuSans-55"/>
      </g>
     </g>
    </g>
    <g id="xtick_79">
     <g id="line2d_79">
      <g>
       <use style="stroke:#000000;stroke-width:0.8;" x="1008.992241" xlink:href="#m00fb31e224" y="576.718125"/>
      </g>
     </g>
     <g id="text_79">
      <!-- 78 -->
      <g transform="translate(1011.751616 596.443125)rotate(-90)scale(0.1 -0.1)">
       <use xlink:href="#DejaVuSans-55"/>
       <use x="63.623047" xlink:href="#DejaVuSans-56"/>
      </g>
     </g>
    </g>
    <g id="xtick_80">
     <g id="line2d_80">
      <g>
       <use style="stroke:#000000;stroke-width:0.8;" x="1021.178448" xlink:href="#m00fb31e224" y="576.718125"/>
      </g>
     </g>
     <g id="text_80">
      <!-- 79 -->
      <g transform="translate(1023.937823 596.443125)rotate(-90)scale(0.1 -0.1)">
       <use xlink:href="#DejaVuSans-55"/>
       <use x="63.623047" xlink:href="#DejaVuSans-57"/>
      </g>
     </g>
    </g>
    <g id="xtick_81">
     <g id="line2d_81">
      <g>
       <use style="stroke:#000000;stroke-width:0.8;" x="1033.364655" xlink:href="#m00fb31e224" y="576.718125"/>
      </g>
     </g>
     <g id="text_81">
      <!-- 80 -->
      <g transform="translate(1036.12403 596.443125)rotate(-90)scale(0.1 -0.1)">
       <use xlink:href="#DejaVuSans-56"/>
       <use x="63.623047" xlink:href="#DejaVuSans-48"/>
      </g>
     </g>
    </g>
    <g id="xtick_82">
     <g id="line2d_82">
      <g>
       <use style="stroke:#000000;stroke-width:0.8;" x="1045.550862" xlink:href="#m00fb31e224" y="576.718125"/>
      </g>
     </g>
     <g id="text_82">
      <!-- 81 -->
      <g transform="translate(1048.310237 596.443125)rotate(-90)scale(0.1 -0.1)">
       <use xlink:href="#DejaVuSans-56"/>
       <use x="63.623047" xlink:href="#DejaVuSans-49"/>
      </g>
     </g>
    </g>
    <g id="xtick_83">
     <g id="line2d_83">
      <g>
       <use style="stroke:#000000;stroke-width:0.8;" x="1057.737069" xlink:href="#m00fb31e224" y="576.718125"/>
      </g>
     </g>
     <g id="text_83">
      <!-- 82 -->
      <g transform="translate(1060.496444 596.443125)rotate(-90)scale(0.1 -0.1)">
       <use xlink:href="#DejaVuSans-56"/>
       <use x="63.623047" xlink:href="#DejaVuSans-50"/>
      </g>
     </g>
    </g>
    <g id="xtick_84">
     <g id="line2d_84">
      <g>
       <use style="stroke:#000000;stroke-width:0.8;" x="1069.923276" xlink:href="#m00fb31e224" y="576.718125"/>
      </g>
     </g>
     <g id="text_84">
      <!-- 83 -->
      <g transform="translate(1072.682651 596.443125)rotate(-90)scale(0.1 -0.1)">
       <use xlink:href="#DejaVuSans-56"/>
       <use x="63.623047" xlink:href="#DejaVuSans-51"/>
      </g>
     </g>
    </g>
    <g id="xtick_85">
     <g id="line2d_85">
      <g>
       <use style="stroke:#000000;stroke-width:0.8;" x="1082.109483" xlink:href="#m00fb31e224" y="576.718125"/>
      </g>
     </g>
     <g id="text_85">
      <!-- 84 -->
      <g transform="translate(1084.868858 596.443125)rotate(-90)scale(0.1 -0.1)">
       <use xlink:href="#DejaVuSans-56"/>
       <use x="63.623047" xlink:href="#DejaVuSans-52"/>
      </g>
     </g>
    </g>
    <g id="xtick_86">
     <g id="line2d_86">
      <g>
       <use style="stroke:#000000;stroke-width:0.8;" x="1094.29569" xlink:href="#m00fb31e224" y="576.718125"/>
      </g>
     </g>
     <g id="text_86">
      <!-- 85 -->
      <g transform="translate(1097.055065 596.443125)rotate(-90)scale(0.1 -0.1)">
       <use xlink:href="#DejaVuSans-56"/>
       <use x="63.623047" xlink:href="#DejaVuSans-53"/>
      </g>
     </g>
    </g>
    <g id="xtick_87">
     <g id="line2d_87">
      <g>
       <use style="stroke:#000000;stroke-width:0.8;" x="1106.481897" xlink:href="#m00fb31e224" y="576.718125"/>
      </g>
     </g>
     <g id="text_87">
      <!-- 86 -->
      <g transform="translate(1109.241272 596.443125)rotate(-90)scale(0.1 -0.1)">
       <use xlink:href="#DejaVuSans-56"/>
       <use x="63.623047" xlink:href="#DejaVuSans-54"/>
      </g>
     </g>
    </g>
   </g>
   <g id="matplotlib.axis_2">
    <g id="ytick_1">
     <g id="line2d_88">
      <defs>
       <path d="M 0 0 
L -3.5 0 
" id="m51a927f7b4" style="stroke:#000000;stroke-width:0.8;"/>
      </defs>
      <g>
       <use style="stroke:#000000;stroke-width:0.8;" x="52.375" xlink:href="#m51a927f7b4" y="576.718125"/>
      </g>
     </g>
     <g id="text_88">
      <!-- 0 -->
      <g transform="translate(39.0125 580.517344)scale(0.1 -0.1)">
       <use xlink:href="#DejaVuSans-48"/>
      </g>
     </g>
    </g>
    <g id="ytick_2">
     <g id="line2d_89">
      <g>
       <use style="stroke:#000000;stroke-width:0.8;" x="52.375" xlink:href="#m51a927f7b4" y="514.364561"/>
      </g>
     </g>
     <g id="text_89">
      <!-- 25000 -->
      <g transform="translate(13.5625 518.16378)scale(0.1 -0.1)">
       <use xlink:href="#DejaVuSans-50"/>
       <use x="63.623047" xlink:href="#DejaVuSans-53"/>
       <use x="127.246094" xlink:href="#DejaVuSans-48"/>
       <use x="190.869141" xlink:href="#DejaVuSans-48"/>
       <use x="254.492188" xlink:href="#DejaVuSans-48"/>
      </g>
     </g>
    </g>
    <g id="ytick_3">
     <g id="line2d_90">
      <g>
       <use style="stroke:#000000;stroke-width:0.8;" x="52.375" xlink:href="#m51a927f7b4" y="452.010998"/>
      </g>
     </g>
     <g id="text_90">
      <!-- 50000 -->
      <g transform="translate(13.5625 455.810217)scale(0.1 -0.1)">
       <use xlink:href="#DejaVuSans-53"/>
       <use x="63.623047" xlink:href="#DejaVuSans-48"/>
       <use x="127.246094" xlink:href="#DejaVuSans-48"/>
       <use x="190.869141" xlink:href="#DejaVuSans-48"/>
       <use x="254.492188" xlink:href="#DejaVuSans-48"/>
      </g>
     </g>
    </g>
    <g id="ytick_4">
     <g id="line2d_91">
      <g>
       <use style="stroke:#000000;stroke-width:0.8;" x="52.375" xlink:href="#m51a927f7b4" y="389.657434"/>
      </g>
     </g>
     <g id="text_91">
      <!-- 75000 -->
      <g transform="translate(13.5625 393.456653)scale(0.1 -0.1)">
       <use xlink:href="#DejaVuSans-55"/>
       <use x="63.623047" xlink:href="#DejaVuSans-53"/>
       <use x="127.246094" xlink:href="#DejaVuSans-48"/>
       <use x="190.869141" xlink:href="#DejaVuSans-48"/>
       <use x="254.492188" xlink:href="#DejaVuSans-48"/>
      </g>
     </g>
    </g>
    <g id="ytick_5">
     <g id="line2d_92">
      <g>
       <use style="stroke:#000000;stroke-width:0.8;" x="52.375" xlink:href="#m51a927f7b4" y="327.303871"/>
      </g>
     </g>
     <g id="text_92">
      <!-- 100000 -->
      <g transform="translate(7.2 331.103089)scale(0.1 -0.1)">
       <use xlink:href="#DejaVuSans-49"/>
       <use x="63.623047" xlink:href="#DejaVuSans-48"/>
       <use x="127.246094" xlink:href="#DejaVuSans-48"/>
       <use x="190.869141" xlink:href="#DejaVuSans-48"/>
       <use x="254.492188" xlink:href="#DejaVuSans-48"/>
       <use x="318.115234" xlink:href="#DejaVuSans-48"/>
      </g>
     </g>
    </g>
    <g id="ytick_6">
     <g id="line2d_93">
      <g>
       <use style="stroke:#000000;stroke-width:0.8;" x="52.375" xlink:href="#m51a927f7b4" y="264.950307"/>
      </g>
     </g>
     <g id="text_93">
      <!-- 125000 -->
      <g transform="translate(7.2 268.749526)scale(0.1 -0.1)">
       <use xlink:href="#DejaVuSans-49"/>
       <use x="63.623047" xlink:href="#DejaVuSans-50"/>
       <use x="127.246094" xlink:href="#DejaVuSans-53"/>
       <use x="190.869141" xlink:href="#DejaVuSans-48"/>
       <use x="254.492188" xlink:href="#DejaVuSans-48"/>
       <use x="318.115234" xlink:href="#DejaVuSans-48"/>
      </g>
     </g>
    </g>
    <g id="ytick_7">
     <g id="line2d_94">
      <g>
       <use style="stroke:#000000;stroke-width:0.8;" x="52.375" xlink:href="#m51a927f7b4" y="202.596743"/>
      </g>
     </g>
     <g id="text_94">
      <!-- 150000 -->
      <g transform="translate(7.2 206.395962)scale(0.1 -0.1)">
       <use xlink:href="#DejaVuSans-49"/>
       <use x="63.623047" xlink:href="#DejaVuSans-53"/>
       <use x="127.246094" xlink:href="#DejaVuSans-48"/>
       <use x="190.869141" xlink:href="#DejaVuSans-48"/>
       <use x="254.492188" xlink:href="#DejaVuSans-48"/>
       <use x="318.115234" xlink:href="#DejaVuSans-48"/>
      </g>
     </g>
    </g>
    <g id="ytick_8">
     <g id="line2d_95">
      <g>
       <use style="stroke:#000000;stroke-width:0.8;" x="52.375" xlink:href="#m51a927f7b4" y="140.24318"/>
      </g>
     </g>
     <g id="text_95">
      <!-- 175000 -->
      <g transform="translate(7.2 144.042399)scale(0.1 -0.1)">
       <use xlink:href="#DejaVuSans-49"/>
       <use x="63.623047" xlink:href="#DejaVuSans-55"/>
       <use x="127.246094" xlink:href="#DejaVuSans-53"/>
       <use x="190.869141" xlink:href="#DejaVuSans-48"/>
       <use x="254.492188" xlink:href="#DejaVuSans-48"/>
       <use x="318.115234" xlink:href="#DejaVuSans-48"/>
      </g>
     </g>
    </g>
    <g id="ytick_9">
     <g id="line2d_96">
      <g>
       <use style="stroke:#000000;stroke-width:0.8;" x="52.375" xlink:href="#m51a927f7b4" y="77.889616"/>
      </g>
     </g>
     <g id="text_96">
      <!-- 200000 -->
      <g transform="translate(7.2 81.688835)scale(0.1 -0.1)">
       <use xlink:href="#DejaVuSans-50"/>
       <use x="63.623047" xlink:href="#DejaVuSans-48"/>
       <use x="127.246094" xlink:href="#DejaVuSans-48"/>
       <use x="190.869141" xlink:href="#DejaVuSans-48"/>
       <use x="254.492188" xlink:href="#DejaVuSans-48"/>
       <use x="318.115234" xlink:href="#DejaVuSans-48"/>
      </g>
     </g>
    </g>
   </g>
   <g id="patch_90">
    <path d="M 52.375 576.718125 
L 52.375 22.318125 
" style="fill:none;stroke:#000000;stroke-linecap:square;stroke-linejoin:miter;stroke-width:0.8;"/>
   </g>
   <g id="patch_91">
    <path d="M 1112.575 576.718125 
L 1112.575 22.318125 
" style="fill:none;stroke:#000000;stroke-linecap:square;stroke-linejoin:miter;stroke-width:0.8;"/>
   </g>
   <g id="patch_92">
    <path d="M 52.375 576.718125 
L 1112.575 576.718125 
" style="fill:none;stroke:#000000;stroke-linecap:square;stroke-linejoin:miter;stroke-width:0.8;"/>
   </g>
   <g id="patch_93">
    <path d="M 52.375 22.318125 
L 1112.575 22.318125 
" style="fill:none;stroke:#000000;stroke-linecap:square;stroke-linejoin:miter;stroke-width:0.8;"/>
   </g>
   <g id="text_97">
    <!-- Cases in California -->
    <defs>
     <path d="M 64.40625 67.28125 
L 64.40625 56.890625 
Q 59.421875 61.53125 53.78125 63.8125 
Q 48.140625 66.109375 41.796875 66.109375 
Q 29.296875 66.109375 22.65625 58.46875 
Q 16.015625 50.828125 16.015625 36.375 
Q 16.015625 21.96875 22.65625 14.328125 
Q 29.296875 6.6875 41.796875 6.6875 
Q 48.140625 6.6875 53.78125 8.984375 
Q 59.421875 11.28125 64.40625 15.921875 
L 64.40625 5.609375 
Q 59.234375 2.09375 53.4375 0.328125 
Q 47.65625 -1.421875 41.21875 -1.421875 
Q 24.65625 -1.421875 15.125 8.703125 
Q 5.609375 18.84375 5.609375 36.375 
Q 5.609375 53.953125 15.125 64.078125 
Q 24.65625 74.21875 41.21875 74.21875 
Q 47.75 74.21875 53.53125 72.484375 
Q 59.328125 70.75 64.40625 67.28125 
z
" id="DejaVuSans-67"/>
     <path d="M 34.28125 27.484375 
Q 23.390625 27.484375 19.1875 25 
Q 14.984375 22.515625 14.984375 16.5 
Q 14.984375 11.71875 18.140625 8.90625 
Q 21.296875 6.109375 26.703125 6.109375 
Q 34.1875 6.109375 38.703125 11.40625 
Q 43.21875 16.703125 43.21875 25.484375 
L 43.21875 27.484375 
z
M 52.203125 31.203125 
L 52.203125 0 
L 43.21875 0 
L 43.21875 8.296875 
Q 40.140625 3.328125 35.546875 0.953125 
Q 30.953125 -1.421875 24.3125 -1.421875 
Q 15.921875 -1.421875 10.953125 3.296875 
Q 6 8.015625 6 15.921875 
Q 6 25.140625 12.171875 29.828125 
Q 18.359375 34.515625 30.609375 34.515625 
L 43.21875 34.515625 
L 43.21875 35.40625 
Q 43.21875 41.609375 39.140625 45 
Q 35.0625 48.390625 27.6875 48.390625 
Q 23 48.390625 18.546875 47.265625 
Q 14.109375 46.140625 10.015625 43.890625 
L 10.015625 52.203125 
Q 14.9375 54.109375 19.578125 55.046875 
Q 24.21875 56 28.609375 56 
Q 40.484375 56 46.34375 49.84375 
Q 52.203125 43.703125 52.203125 31.203125 
z
" id="DejaVuSans-97"/>
     <path d="M 44.28125 53.078125 
L 44.28125 44.578125 
Q 40.484375 46.53125 36.375 47.5 
Q 32.28125 48.484375 27.875 48.484375 
Q 21.1875 48.484375 17.84375 46.4375 
Q 14.5 44.390625 14.5 40.28125 
Q 14.5 37.15625 16.890625 35.375 
Q 19.28125 33.59375 26.515625 31.984375 
L 29.59375 31.296875 
Q 39.15625 29.25 43.1875 25.515625 
Q 47.21875 21.78125 47.21875 15.09375 
Q 47.21875 7.46875 41.1875 3.015625 
Q 35.15625 -1.421875 24.609375 -1.421875 
Q 20.21875 -1.421875 15.453125 -0.5625 
Q 10.6875 0.296875 5.421875 2 
L 5.421875 11.28125 
Q 10.40625 8.6875 15.234375 7.390625 
Q 20.0625 6.109375 24.8125 6.109375 
Q 31.15625 6.109375 34.5625 8.28125 
Q 37.984375 10.453125 37.984375 14.40625 
Q 37.984375 18.0625 35.515625 20.015625 
Q 33.0625 21.96875 24.703125 23.78125 
L 21.578125 24.515625 
Q 13.234375 26.265625 9.515625 29.90625 
Q 5.8125 33.546875 5.8125 39.890625 
Q 5.8125 47.609375 11.28125 51.796875 
Q 16.75 56 26.8125 56 
Q 31.78125 56 36.171875 55.265625 
Q 40.578125 54.546875 44.28125 53.078125 
z
" id="DejaVuSans-115"/>
     <path d="M 56.203125 29.59375 
L 56.203125 25.203125 
L 14.890625 25.203125 
Q 15.484375 15.921875 20.484375 11.0625 
Q 25.484375 6.203125 34.421875 6.203125 
Q 39.59375 6.203125 44.453125 7.46875 
Q 49.3125 8.734375 54.109375 11.28125 
L 54.109375 2.78125 
Q 49.265625 0.734375 44.1875 -0.34375 
Q 39.109375 -1.421875 33.890625 -1.421875 
Q 20.796875 -1.421875 13.15625 6.1875 
Q 5.515625 13.8125 5.515625 26.8125 
Q 5.515625 40.234375 12.765625 48.109375 
Q 20.015625 56 32.328125 56 
Q 43.359375 56 49.78125 48.890625 
Q 56.203125 41.796875 56.203125 29.59375 
z
M 47.21875 32.234375 
Q 47.125 39.59375 43.09375 43.984375 
Q 39.0625 48.390625 32.421875 48.390625 
Q 24.90625 48.390625 20.390625 44.140625 
Q 15.875 39.890625 15.1875 32.171875 
z
" id="DejaVuSans-101"/>
     <path id="DejaVuSans-32"/>
     <path d="M 9.421875 54.6875 
L 18.40625 54.6875 
L 18.40625 0 
L 9.421875 0 
z
M 9.421875 75.984375 
L 18.40625 75.984375 
L 18.40625 64.59375 
L 9.421875 64.59375 
z
" id="DejaVuSans-105"/>
     <path d="M 54.890625 33.015625 
L 54.890625 0 
L 45.90625 0 
L 45.90625 32.71875 
Q 45.90625 40.484375 42.875 44.328125 
Q 39.84375 48.1875 33.796875 48.1875 
Q 26.515625 48.1875 22.3125 43.546875 
Q 18.109375 38.921875 18.109375 30.90625 
L 18.109375 0 
L 9.078125 0 
L 9.078125 54.6875 
L 18.109375 54.6875 
L 18.109375 46.1875 
Q 21.34375 51.125 25.703125 53.5625 
Q 30.078125 56 35.796875 56 
Q 45.21875 56 50.046875 50.171875 
Q 54.890625 44.34375 54.890625 33.015625 
z
" id="DejaVuSans-110"/>
     <path d="M 9.421875 75.984375 
L 18.40625 75.984375 
L 18.40625 0 
L 9.421875 0 
z
" id="DejaVuSans-108"/>
     <path d="M 37.109375 75.984375 
L 37.109375 68.5 
L 28.515625 68.5 
Q 23.6875 68.5 21.796875 66.546875 
Q 19.921875 64.59375 19.921875 59.515625 
L 19.921875 54.6875 
L 34.71875 54.6875 
L 34.71875 47.703125 
L 19.921875 47.703125 
L 19.921875 0 
L 10.890625 0 
L 10.890625 47.703125 
L 2.296875 47.703125 
L 2.296875 54.6875 
L 10.890625 54.6875 
L 10.890625 58.5 
Q 10.890625 67.625 15.140625 71.796875 
Q 19.390625 75.984375 28.609375 75.984375 
z
" id="DejaVuSans-102"/>
     <path d="M 30.609375 48.390625 
Q 23.390625 48.390625 19.1875 42.75 
Q 14.984375 37.109375 14.984375 27.296875 
Q 14.984375 17.484375 19.15625 11.84375 
Q 23.34375 6.203125 30.609375 6.203125 
Q 37.796875 6.203125 41.984375 11.859375 
Q 46.1875 17.53125 46.1875 27.296875 
Q 46.1875 37.015625 41.984375 42.703125 
Q 37.796875 48.390625 30.609375 48.390625 
z
M 30.609375 56 
Q 42.328125 56 49.015625 48.375 
Q 55.71875 40.765625 55.71875 27.296875 
Q 55.71875 13.875 49.015625 6.21875 
Q 42.328125 -1.421875 30.609375 -1.421875 
Q 18.84375 -1.421875 12.171875 6.21875 
Q 5.515625 13.875 5.515625 27.296875 
Q 5.515625 40.765625 12.171875 48.375 
Q 18.84375 56 30.609375 56 
z
" id="DejaVuSans-111"/>
     <path d="M 41.109375 46.296875 
Q 39.59375 47.171875 37.8125 47.578125 
Q 36.03125 48 33.890625 48 
Q 26.265625 48 22.1875 43.046875 
Q 18.109375 38.09375 18.109375 28.8125 
L 18.109375 0 
L 9.078125 0 
L 9.078125 54.6875 
L 18.109375 54.6875 
L 18.109375 46.1875 
Q 20.953125 51.171875 25.484375 53.578125 
Q 30.03125 56 36.53125 56 
Q 37.453125 56 38.578125 55.875 
Q 39.703125 55.765625 41.0625 55.515625 
z
" id="DejaVuSans-114"/>
    </defs>
    <g transform="translate(526.890625 16.318125)scale(0.12 -0.12)">
     <use xlink:href="#DejaVuSans-67"/>
     <use x="69.824219" xlink:href="#DejaVuSans-97"/>
     <use x="131.103516" xlink:href="#DejaVuSans-115"/>
     <use x="183.203125" xlink:href="#DejaVuSans-101"/>
     <use x="244.726562" xlink:href="#DejaVuSans-115"/>
     <use x="296.826172" xlink:href="#DejaVuSans-32"/>
     <use x="328.613281" xlink:href="#DejaVuSans-105"/>
     <use x="356.396484" xlink:href="#DejaVuSans-110"/>
     <use x="419.775391" xlink:href="#DejaVuSans-32"/>
     <use x="451.5625" xlink:href="#DejaVuSans-67"/>
     <use x="521.386719" xlink:href="#DejaVuSans-97"/>
     <use x="582.666016" xlink:href="#DejaVuSans-108"/>
     <use x="610.449219" xlink:href="#DejaVuSans-105"/>
     <use x="638.232422" xlink:href="#DejaVuSans-102"/>
     <use x="673.4375" xlink:href="#DejaVuSans-111"/>
     <use x="734.619141" xlink:href="#DejaVuSans-114"/>
     <use x="773.982422" xlink:href="#DejaVuSans-110"/>
     <use x="837.361328" xlink:href="#DejaVuSans-105"/>
     <use x="865.144531" xlink:href="#DejaVuSans-97"/>
    </g>
   </g>
  </g>
 </g>
 <defs>
  <clipPath id="p82037fbd47">
   <rect height="554.4" width="1060.2" x="52.375" y="22.318125"/>
  </clipPath>
 </defs>
</svg>
